# xmcd
#
# Track frame offsets:
#	150
#	81737
#	125952
#	166867
#	237087
#
# Disc length: 3645 seconds
#
# Revision: 1
# Processed by: cddbd v1.4b42PL1 Copyright (c) Steve Scherf et al.
# Submitted via: audiograbber 1.80
#
DISCID=400e3b05
DTITLE=Gamelan - Semara Dana
DYEAR=1900
DGENRE=
TTITLE0=Gora Merdawa
TTITLE1=Catura Angurit
TTITLE2=Sinom Ladrang
TTITLE3=Jagra Parawata
TTITLE4=Suara Sandi
EXTD=Bali folk music
EXTT0=
EXTT1=
EXTT2=
EXTT3=
EXTT4=
PLAYORDER=
